<svg width="1070" height="1015" viewBox="0 0 1070 1015" fill="none" xmlns="http://www.w3.org/2000/svg">
<g filter="url(#filter0_f_1676_13579)">
<path d="M531.873 190.91C530.525 221.315 527.08 269.396 524.234 296.69C509.556 436.551 473.609 476.855 347.945 493.966C311.549 498.774 215.841 505.987 185.436 505.987C180.194 505.987 176 506.552 176 507.259C176 507.825 186.934 508.815 200.414 509.381C233.515 510.653 284.29 514.047 311.549 516.593C372.659 522.532 407.257 530.027 437.363 544.169C490.834 569.341 513.3 614.453 524.234 718.112C527.08 745.405 530.525 793.487 531.873 823.75C532.472 836.477 533.371 846.801 533.97 846.801C534.569 846.801 535.467 836.477 536.067 823.75C537.415 792.355 541.009 743.001 543.855 717.404C558.833 577.402 594.031 538.088 720.443 520.977C759.086 515.603 850.75 508.815 884.151 508.815C889.243 508.815 893.437 508.249 893.437 507.542C893.437 506.976 882.503 505.987 869.173 505.421C814.204 503.158 749.95 498.209 718.946 493.825C593.432 475.865 558.833 436.975 543.855 297.397C541.009 271.8 537.415 222.446 536.067 190.91C535.467 178.324 534.569 168.001 533.97 168.001C533.371 168.001 532.472 178.324 531.873 190.91Z" fill="#0000B3"/>
</g>
<g filter="url(#filter1_f_1676_13579)">
<path d="M533.266 369.913C532.682 383.127 531.189 404.023 529.955 415.884C523.592 476.666 508.01 494.182 453.536 501.618C437.759 503.708 396.271 506.842 383.09 506.842C380.818 506.842 379 507.088 379 507.396C379 507.641 383.74 508.072 389.583 508.317C403.932 508.871 425.942 510.346 437.759 511.452C464.249 514.033 479.247 517.29 492.297 523.436C515.476 534.376 525.215 553.981 529.955 599.03C531.189 610.891 532.682 631.787 533.266 644.939C533.526 650.471 533.916 654.957 534.175 654.957C534.435 654.957 534.825 650.471 535.084 644.939C535.669 631.296 537.227 609.847 538.461 598.723C544.953 537.879 560.211 520.793 615.009 513.357C631.761 511.022 671.496 508.072 685.975 508.072C688.182 508.072 690 507.826 690 507.518C690 507.273 685.26 506.842 679.482 506.597C655.654 505.613 627.8 503.462 614.36 501.557C559.951 493.752 544.953 476.851 538.461 416.191C537.227 405.067 535.669 383.618 535.084 369.913C534.825 364.443 534.435 359.957 534.175 359.957C533.916 359.957 533.526 364.443 533.266 369.913Z" fill="#B21200" style="mix-blend-mode:multiply"/>
</g>
<g filter="url(#filter2_f_1676_13579)">
<path d="M533.957 446.394C533.699 452.262 533.041 461.541 532.498 466.808C529.695 493.8 522.831 501.578 498.834 504.88C491.884 505.808 473.608 507.2 467.802 507.2C466.801 507.2 466 507.309 466 507.445C466 507.555 468.088 507.746 470.662 507.855C476.983 508.1 486.679 508.755 491.884 509.247C503.553 510.393 510.16 511.839 515.909 514.568C526.12 519.426 530.41 528.132 532.498 548.137C533.041 553.405 533.699 562.684 533.957 568.524C534.071 570.98 534.243 572.973 534.357 572.973C534.471 572.973 534.643 570.98 534.757 568.524C535.015 562.465 535.701 552.941 536.245 548.001C539.105 520.982 545.826 513.395 569.966 510.093C577.345 509.056 594.849 507.746 601.227 507.746C602.199 507.746 603 507.636 603 507.5C603 507.391 600.912 507.2 598.367 507.091C587.87 506.654 575.6 505.699 569.68 504.853C545.712 501.387 539.105 493.881 536.245 466.945C535.701 462.005 535.015 452.48 534.757 446.394C534.643 443.965 534.471 441.973 534.357 441.973C534.243 441.973 534.071 443.965 533.957 446.394Z" fill="black" fill-opacity="0.2"/>
</g>
<defs>
<filter id="filter0_f_1676_13579" x="93.8759" y="85.8759" width="881.686" height="843.049" filterUnits="userSpaceOnUse" color-interpolation-filters="sRGB">
<feFlood flood-opacity="0" result="BackgroundImageFix"/>
<feBlend mode="normal" in="SourceGraphic" in2="BackgroundImageFix" result="shape"/>
<feGaussianBlur stdDeviation="41.062" result="effect1_foregroundBlur_1676_13579"/>
</filter>
<filter id="filter1_f_1676_13579" x="259" y="239.957" width="551" height="535" filterUnits="userSpaceOnUse" color-interpolation-filters="sRGB">
<feFlood flood-opacity="0" result="BackgroundImageFix"/>
<feBlend mode="normal" in="SourceGraphic" in2="BackgroundImageFix" result="shape"/>
<feGaussianBlur stdDeviation="60" result="effect1_foregroundBlur_1676_13579"/>
</filter>
<filter id="filter2_f_1676_13579" x="383.876" y="359.849" width="301.248" height="295.248" filterUnits="userSpaceOnUse" color-interpolation-filters="sRGB">
<feFlood flood-opacity="0" result="BackgroundImageFix"/>
<feBlend mode="normal" in="SourceGraphic" in2="BackgroundImageFix" result="shape"/>
<feGaussianBlur stdDeviation="41.062" result="effect1_foregroundBlur_1676_13579"/>
</filter>
</defs>
</svg>
