<svg width="427" height="84" viewBox="0 0 427 84" fill="none" xmlns="http://www.w3.org/2000/svg">
<path d="M0 67.7284V15.7344H19.0407C33.808 15.7344 44.6816 26.7505 44.6816 41.7551C44.6816 56.7598 33.8554 67.7759 19.0407 67.7759H0V67.7284ZM4.32096 63.5499H18.9458C31.5763 63.5499 40.2657 53.9583 40.2657 41.7076C40.2657 29.457 31.5763 19.8654 18.9458 19.8654H4.32096V63.5499Z" fill="black"/>
<path d="M56.4098 67.7284V15.7344H81.0535V19.9129H60.6833V39.381H79.7715V43.5595H60.6833V63.5973H81.4334V67.7759H56.4098V67.7284Z" fill="black"/>
<path d="M107.597 38.2413C115.621 40.6154 123.504 44.2716 123.504 53.6733C123.504 63.0749 116.951 68.6779 106.79 68.6779C96.6282 68.6779 94.0166 65.639 89.6482 60.3684L92.9245 57.5669C96.1059 61.413 100.284 64.5469 106.837 64.5469C113.39 64.5469 119.183 60.1785 119.183 53.7208C119.183 47.2631 113.485 44.604 106.41 42.5622C98.2426 40.2356 91.2626 36.7693 91.2626 27.9374C91.2626 19.1056 97.293 14.7846 106.267 14.7846C115.242 14.7846 116.571 16.7789 121.035 20.815L117.901 23.7115C114.482 20.6725 111.206 18.9631 106.22 18.9631C101.234 18.9631 95.5836 22.3819 95.5836 27.89C95.5836 33.398 100.712 36.2945 107.597 38.2888V38.2413Z" fill="black"/>
<path d="M134.995 67.7284V15.7344H139.315V67.7284H134.995Z" fill="black"/>
<path d="M197.767 44.4605H178.442V40.282H202.231V43.5583C202.326 57.2809 192.402 68.6768 177.634 68.6768C162.867 68.6768 151.044 56.7111 151.044 41.7065C151.044 26.7018 162.772 14.7361 177.634 14.7361C186.371 14.7361 192.497 18.0124 197.53 23.8053L194.348 26.7018C190.787 22.4758 185.042 18.9146 177.634 18.9146C165.099 18.9146 155.412 29.4083 155.412 41.7065C155.412 54.0046 165.051 64.4983 177.634 64.4983C190.217 64.4983 197.767 54.337 197.767 45.4101V44.4605Z" fill="black"/>
<path d="M214.054 67.7284V15.7344H218.137L250.853 60.1786H250.948V15.7344H255.269V67.7284H251.186L218.517 23.3792H218.422V67.7284H214.101H214.054Z" fill="black"/>
<path d="M278.426 67.7292V15.7352H297.514C305.301 15.7352 314.085 21.4332 314.085 32.5917C314.085 43.7503 305.301 49.5907 297.514 49.5907H288.445V67.7292H278.426ZM288.445 40.7588H295.947C301.502 40.7588 304.067 36.7703 304.067 32.5917C304.067 28.4132 301.55 24.5671 295.947 24.5671H288.445V40.7588Z" fill="black"/>
<path d="M319.356 41.7073C319.356 26.3228 331.084 14.7369 346.421 14.7369C361.758 14.7369 373.534 26.3228 373.534 41.7073C373.534 57.0918 361.806 68.6777 346.421 68.6777C331.037 68.6777 319.356 57.0918 319.356 41.7073ZM363.468 41.7073C363.468 32.1157 356.535 24.1861 346.374 24.1861C336.212 24.1861 329.375 32.1157 329.375 41.7073C329.375 51.2989 336.307 59.2286 346.374 59.2286C356.44 59.2286 363.468 51.2989 363.468 41.7073Z" fill="black"/>
<path d="M396.183 67.7292L375.671 15.7352H386.497L401.216 54.0541H401.359L416.079 15.7352H427L406.44 67.7292H396.183Z" fill="black"/>
</svg>
