<svg width="173" height="45" viewBox="0 0 173 45" fill="none" xmlns="http://www.w3.org/2000/svg">
<path d="M6.46356 33.3715H9.13618C10.3967 33.3715 11.297 33.0674 11.8372 32.4498C12.368 31.8321 12.6428 30.7774 12.6428 29.2856V1.31129L14.3393 2.38504H9.47736C7.85674 2.38504 6.44461 2.73661 5.25046 3.43027C4.04683 4.13343 3.10858 5.17866 2.43568 6.57548C1.75331 7.97229 1.3837 9.66367 1.31735 11.6401H0L0.729757 0H1.84809C1.87652 0.323072 1.99025 0.532119 2.16084 0.636643C2.34091 0.731664 2.78635 0.779175 3.49715 0.779175H26.2902C26.9347 0.779175 27.3706 0.731664 27.5791 0.636643C27.7876 0.541622 27.8919 0.323072 27.8919 0H29.0576L29.7874 11.6401H28.4226C28.3563 9.66367 27.9867 7.97229 27.3043 6.57548C26.6219 5.17866 25.6931 4.13343 24.5085 3.43027C23.3238 2.73661 21.9211 2.38504 20.3005 2.38504H15.4386L17.0403 1.31129V29.2761C17.0403 30.7679 17.3151 31.8226 17.8648 32.4403C18.4145 33.0579 19.3243 33.362 20.5848 33.362H23.3048V34.8728H6.46356V33.362V33.3715Z" fill="white"/>
<path d="M62.4969 33.8838C61.3596 32.7911 60.8004 31.2612 60.8004 29.2753V12.7606H56.4219V10.5181H60.8004C61.5776 9.57736 62.222 8.45611 62.7243 7.15432C63.2266 5.85253 63.473 4.54124 63.473 3.21094H64.8852V10.5181H71.9837V12.7606H64.8852V28.0115C64.8852 29.4748 65.2453 30.6151 65.9561 31.4228C66.6669 32.2399 67.6715 32.639 68.9699 32.639C69.8797 32.639 70.7043 32.392 71.453 31.9074C72.2017 31.4228 72.8651 30.6911 73.4432 29.7124L74.4668 30.3965C73.3958 32.1829 72.3059 33.4847 71.1876 34.2924C70.0693 35.1001 68.733 35.5087 67.1787 35.5087C65.2074 35.5087 63.6436 34.9671 62.5158 33.8743L62.4969 33.8838Z" fill="white"/>
<path d="M78.8736 33.6935C77.5658 32.5722 76.9023 31.0709 76.9023 29.1895C76.9023 27.4031 77.5563 25.9872 78.8736 24.9515C80.1815 23.9158 82.3139 23.0701 85.2614 22.4144L94.9378 20.3145V21.9678L86.5314 23.7732C84.5221 24.2293 83.1005 24.809 82.2571 25.5311C81.4136 26.2438 80.9966 27.2225 80.9966 28.4578C80.9966 29.7881 81.3946 30.8048 82.1907 31.4985C82.9868 32.2016 84.162 32.5437 85.7163 32.5437C87.1758 32.5437 88.4742 32.2396 89.6304 31.641C90.7772 31.0424 91.6681 30.1967 92.3031 29.1039C92.938 28.0207 93.2508 26.7759 93.2508 25.3791V18.7086C93.2508 16.4661 92.6727 14.7652 91.5259 13.5965C90.3792 12.4277 88.6827 11.8386 86.446 11.8386C85.0244 11.8386 83.9251 12.0761 83.1669 12.5417C82.4087 13.0073 82.0201 13.72 82.0201 14.6607C82.0201 15.2498 82.1812 15.7914 82.5035 16.2951C82.8257 16.7987 83.347 17.2263 84.0578 17.5874C83.8587 18.3 83.4796 18.8796 82.911 19.3167C82.3424 19.7538 81.6884 19.9724 80.9397 19.9724C80.0678 19.9724 79.3475 19.6683 78.7978 19.0697C78.2481 18.471 77.9733 17.6824 77.9733 16.7037C77.9733 15.4019 78.4472 14.2331 79.3854 13.1974C80.3237 12.1616 81.6031 11.3445 83.2238 10.7648C84.8444 10.1757 86.6451 9.89062 88.6164 9.89062C91.4027 9.89062 93.5446 10.6413 95.0515 12.1331C96.5584 13.625 97.3071 15.7724 97.3071 18.5661V29.7216C97.3071 30.7573 97.364 31.546 97.4777 32.0591C97.5914 32.5817 97.781 32.9523 98.0369 33.1803C98.2928 33.4084 98.6813 33.5224 99.2026 33.5224H100.662V34.8907H93.9521L93.3645 30.3107H93.0707C92.1325 31.9641 90.9004 33.2279 89.3746 34.083C87.8487 34.9382 86.1049 35.3753 84.1241 35.3753C81.9159 35.3753 80.1626 34.8147 78.8547 33.6935H78.8736Z" fill="white"/>
<path d="M103.546 33.865C103.043 32.7627 103.053 31.1188 103.574 28.9429L109.403 4.73143C109.63 3.79071 109.602 3.14457 109.327 2.80249C109.052 2.46042 108.407 2.28938 107.403 2.28938H106.332L106.626 1.02559L113.629 0.046875H114.549L107.403 29.6745C107.175 30.7103 107.156 31.4989 107.355 32.0406C107.554 32.5822 107.924 32.8482 108.474 32.8482C109.118 32.8482 109.772 32.4586 110.417 31.6795C111.061 30.9003 111.942 29.456 113.042 27.3465L114.113 27.7836C113.108 29.798 112.227 31.3564 111.469 32.4586C110.71 33.5609 109.943 34.3496 109.185 34.8247C108.426 35.2998 107.554 35.5278 106.588 35.5278C105.062 35.5278 104.057 34.9767 103.546 33.8745V33.865Z" fill="white"/>
<path d="M116.472 33.5231H117.979C118.501 33.5231 118.899 33.409 119.174 33.181C119.448 32.9529 119.638 32.5823 119.733 32.0597C119.827 31.5371 119.875 30.7579 119.875 29.7222V14.5663C119.875 13.6541 119.676 13.027 119.287 12.6659C118.899 12.3048 118.197 12.1338 117.193 12.1338H116.273V10.87L123.078 9.89125H123.95V29.7222C123.95 30.7579 124.007 31.5466 124.121 32.0597C124.234 32.5823 124.424 32.9529 124.68 33.181C124.936 33.409 125.324 33.5231 125.846 33.5231H127.305V34.8914H116.463V33.5231H116.472ZM119.723 5.67231C119.202 5.16869 118.946 4.51305 118.946 3.69586C118.946 2.87868 119.202 2.27054 119.723 1.74792C120.244 1.22531 120.889 0.96875 121.666 0.96875C122.443 0.96875 123.088 1.21581 123.609 1.71942C124.13 2.22303 124.386 2.87868 124.386 3.69586C124.386 4.51305 124.13 5.12118 123.609 5.6438C123.088 6.16642 122.443 6.42297 121.666 6.42297C120.889 6.42297 120.244 6.17592 119.723 5.67231Z" fill="white"/>
<path d="M130.189 33.6463C129.488 32.392 129.441 30.5201 130.019 28.021L133.611 12.7701H129.09L129.573 10.5276H134.094C135.07 9.7199 135.961 8.62715 136.795 7.25884C137.629 5.89054 138.15 4.55074 138.378 3.21094H139.885L133.857 28.7432C133.563 29.9784 133.601 30.9477 133.98 31.6413C134.35 32.3445 135.004 32.6865 135.951 32.6865C136.539 32.6865 137.07 32.525 137.553 32.2019C138.036 31.8789 138.548 31.3372 139.088 30.5676C139.619 29.8074 140.245 28.7432 140.956 27.3749L142.074 27.7644C141.069 29.7504 140.159 31.2897 139.354 32.392C138.539 33.4942 137.733 34.2924 136.928 34.777C136.113 35.2616 135.174 35.5087 134.113 35.5087C132.198 35.5087 130.9 34.8815 130.199 33.6368L130.189 33.6463ZM136.378 10.5276H144.055L143.619 12.7701H135.942L136.378 10.5276Z" fill="white"/>
<path d="M151.039 43.9765C150.347 43.3779 149.996 42.6367 149.996 41.7625C149.996 40.9834 150.252 40.3277 150.774 39.7861C151.295 39.2445 152.025 38.9119 152.963 38.7884C153.285 39.4725 153.712 40.0141 154.223 40.4227C154.745 40.8313 155.275 41.0309 155.825 41.0309C156.413 41.0309 156.915 40.7933 157.332 40.3277C157.749 39.8526 158.175 39.1019 158.592 38.0662L160.63 32.897L159.853 36.3083L149.94 15.2136C149.39 14.0448 148.897 13.1991 148.461 12.6765C148.025 12.1539 147.561 11.8973 147.077 11.8973H146.348V10.529H158.299V11.8973H156.204C155.133 11.8973 154.498 12.3249 154.28 13.1611C154.062 13.9973 154.318 15.1946 155.029 16.7149L161.398 30.4075H161.692L167.037 16.8099C167.653 15.1851 167.842 13.9593 167.624 13.1326C167.397 12.3059 166.715 11.8878 165.587 11.8878H163.208V10.5195H172.534V11.8878H171.851C171.425 11.8878 171.008 12.1634 170.591 12.7145C170.174 13.2656 169.719 14.1303 169.226 15.2991L160.09 38.4463C159.218 40.6888 158.27 42.3232 157.247 43.3399C156.223 44.3661 155.019 44.8792 153.626 44.8792C152.593 44.8792 151.721 44.5752 151.029 43.9765H151.039Z" fill="white"/>
<path d="M53.0069 15.2788C52.1255 13.7394 50.9693 12.4756 49.5572 11.4684V10.5182C49.2255 10.2806 48.8938 10.0526 48.5336 9.84355C47.2921 9.13089 45.9273 8.67479 44.4678 8.42773V9.37795C43.7096 9.25442 42.923 9.1594 42.0985 9.1594H41.9279C41.037 9.1689 40.203 9.27342 39.388 9.43496V10.3852C38.0043 10.6512 36.7059 11.0883 35.5117 11.763C35.0852 12.0005 34.6872 12.2761 34.2986 12.5517V11.6014C32.9149 12.6182 31.7682 13.8915 30.8962 15.4403C29.7779 17.4263 29.2188 19.6498 29.2188 22.1108C29.2188 24.5719 29.759 26.7668 30.8489 28.6673C31.7303 30.2066 32.8865 31.4704 34.2986 32.4776V33.4278C34.6303 33.6654 34.962 33.8934 35.3222 34.1025C36.5637 34.8152 37.9284 35.2713 39.388 35.5183V34.5681C40.1462 34.6916 40.9328 34.7866 41.7573 34.7866H41.9279C42.8188 34.7771 43.6528 34.6726 44.4678 34.5111V33.5609C45.8515 33.2948 47.1499 32.8577 48.3441 32.1831C48.7705 31.9455 49.1686 31.6699 49.5572 31.3944V32.3446C50.9409 31.3279 52.0876 30.0546 52.9595 28.5057C54.0779 26.5198 54.637 24.2963 54.637 21.8352C54.637 19.3742 54.0968 17.1792 53.0069 15.2788ZM44.4678 31.7935V32.7437C43.7096 33.0002 42.8851 33.1333 42.0037 33.1333H41.9279V33.1143C41.0086 33.1048 40.1651 32.9337 39.388 32.6392V33.5894C32.6401 31.0713 30.8962 14.9747 39.388 12.1526V11.2024C40.1462 10.9458 40.9707 10.8128 41.8521 10.8128H41.9279V10.8318C42.8472 10.8413 43.6907 11.0123 44.4678 11.3069V10.3567C51.2157 12.8747 52.9595 28.9713 44.4678 31.7935Z" fill="white"/>
<ellipse cx="170.26" cy="35.4918" rx="2.74028" ry="2.74767" fill="white"/>
</svg>
